<?xml version="1.0" encoding="UTF-8"?>
<svg version="1.1" xmlns="http://www.w3.org/2000/svg" width="1740" height="1056">
<path d="M0 0 C1.87537948 -0.00407132 3.75075656 -0.00941633 5.62612915 -0.01593018 C10.69223093 -0.0295429 15.7581483 -0.02433018 20.82425308 -0.01479292 C26.1415479 -0.0071649 31.45882757 -0.01425063 36.77612305 -0.01895142 C45.70331641 -0.02439984 54.63043517 -0.01724135 63.55761719 -0.00292969 C73.85904387 0.01339503 84.16029238 0.00810588 94.46171474 -0.0084089 C103.32744331 -0.02204982 112.19311843 -0.0239307 121.0588541 -0.0160929 C126.34471619 -0.0114307 131.6304947 -0.01075141 136.91635132 -0.02070236 C141.88723409 -0.02940773 146.85788853 -0.02328517 151.8287468 -0.00601959 C153.64632158 -0.00207376 155.4639158 -0.00315592 157.2814827 -0.00980759 C179.41726758 -0.08331003 190.72941267 5.96614735 206.48828125 21.45068359 C208.25816987 23.21258175 209.96962078 24.99852261 211.58723313 26.90189117 C217.37444017 33.71076664 223.72798986 39.95458543 230.04734802 46.26173401 C231.34721129 47.56275064 232.64685666 48.86398499 233.9463039 50.16541713 C237.50429529 53.7275722 241.06538562 57.28661487 244.62700999 60.845137 C248.47277175 64.68863282 252.31565069 68.53500917 256.15890503 72.38101196 C263.68301961 79.90957042 271.20983188 87.43542618 278.7376185 94.96031279 C284.85621154 101.07664639 290.97382654 107.19395663 297.09074593 113.31196404 C298.39721679 114.61866475 298.39721679 114.61866475 299.73008101 115.95176346 C301.49952166 117.72152384 303.26896006 119.49128645 305.03839625 121.26105129 C321.15320568 137.37863022 337.27083401 153.4933877 353.38964859 169.60696104 C368.09530517 184.30787223 382.79837458 199.01136627 397.49926758 213.71704102 C414.02669264 230.249824 430.55574557 246.78097671 447.08738476 263.30954593 C448.8505922 265.07243483 450.61379756 266.83532582 452.37700081 268.59821892 C453.24450493 269.46556877 454.11200906 270.33291861 455.00580118 271.22655179 C461.11551774 277.33540534 467.22407399 283.44541766 473.33218193 289.55587959 C480.77712135 297.00362516 488.22384303 304.4495832 495.67284685 311.89326376 C499.47251737 315.6903083 503.27138788 319.48814407 507.06809044 323.28815651 C510.54548897 326.76854066 514.02519848 330.24659695 517.50674403 333.72283255 C518.76393163 334.97890563 520.02028267 336.2358167 521.2756974 337.49366171 C522.986986 339.20800802 524.70135149 340.91922015 526.41648006 342.62972355 C526.89883184 343.11441649 527.38118361 343.59910943 527.8781521 344.09849003 C530.57166641 346.77758675 533.34433899 349.31987403 536.21763939 351.80591464 C540.1418109 355.21031556 543.8456165 358.78780484 547.51535225 362.46294689 C548.1981349 363.14277812 548.88091755 363.82260934 549.58439058 364.52304152 C551.86126222 366.79128258 554.13462351 369.06300836 556.4079895 371.33476257 C558.06033616 372.98237417 559.71289074 374.62977728 561.3656348 376.27699023 C565.42416288 380.3231059 569.48036628 384.37154131 573.53555098 388.42100763 C578.39571531 393.27408762 583.25871117 398.12432669 588.12168434 402.9745918 C600.42811996 415.24924937 612.72861647 427.52985227 625.02797681 439.81159875 C628.36004943 443.13889889 631.69223964 446.46608126 635.02443838 449.79325509 C655.72191817 470.45969384 676.41718108 491.12835111 697.10753059 511.80192852 C701.89603291 516.5864939 706.68457271 521.37102176 711.47314453 526.15551758 C712.06803396 526.74990534 712.6629234 527.34429311 713.27583978 527.95669262 C732.57176091 547.23618878 751.87867408 566.50462955 771.1918019 585.76688784 C791.05876241 605.58161546 810.91597499 625.40605727 830.76046754 645.24328793 C833.5636304 648.04542224 836.3668971 650.84745264 839.17022324 653.6494236 C839.99774871 654.47656202 839.99774871 654.47656202 840.84199188 655.32041031 C849.7141701 664.1878968 858.59642075 673.04522713 867.48241617 681.8988651 C876.41398432 690.79838311 885.33445571 699.70890373 894.24379505 708.63067593 C899.06916224 713.46218196 903.89918763 718.28879045 908.74304962 723.10176086 C913.17854869 727.50992267 917.59992643 731.93175671 922.0105661 736.36478779 C923.60679589 737.96424311 925.20809622 739.55865784 926.81498243 741.1474069 C947.20739389 761.32356182 947.20739389 761.32356182 947.55078125 776.57568359 C947.30577132 791.34978236 938.17736916 800.96561461 928.23150635 810.84513855 C927.20987288 811.87095177 926.1888912 812.89741446 925.16850066 813.92446405 C922.38047148 816.72688213 919.58324275 819.51995242 916.78431654 822.31148136 C913.76041497 825.33063732 910.74516993 828.35841837 907.72875977 831.38505554 C901.82508936 837.30589151 895.91329635 843.21855168 889.99841574 849.12818667 C885.18971475 853.93284086 880.38377236 858.74023795 875.57976532 863.54958534 C874.8951759 864.23492318 874.21058648 864.92026102 873.50525193 865.62636668 C872.11437905 867.01877109 870.72350957 868.41117891 869.33264348 869.8035901 C856.29953576 882.85041452 843.25687284 895.88765371 830.21116802 908.92188034 C818.28455967 920.83855527 806.36942938 932.76663067 794.45975497 944.70022758 C782.22008007 956.96430179 769.9730224 969.22095709 757.71781707 981.46951276 C750.84183938 988.34200034 743.96874478 995.21731134 737.10327911 1002.10030174 C731.25941594 1007.95889716 725.4085433 1013.81038139 719.54860762 1019.65290233 C716.56107578 1022.63193071 713.57680059 1025.6140341 710.60118866 1028.60497284 C707.87333125 1031.3467062 705.13628944 1034.07891841 702.39186093 1036.80406133 C701.40454249 1037.78762844 700.42053015 1038.77452883 699.44033697 1039.76519694 C690.63318232 1048.6596899 681.41070054 1056.54498385 668.33829141 1056.6649946 C667.58439999 1056.66189739 666.83050858 1056.65880019 666.05377197 1056.65560913 C664.83159993 1056.6624058 664.83159993 1056.6624058 663.58473754 1056.66933978 C660.86274865 1056.68196946 658.14096021 1056.68036433 655.41894531 1056.67871094 C653.46386458 1056.68469713 651.50878621 1056.69150289 649.55371094 1056.69906616 C644.24776623 1056.71672534 638.94188605 1056.72142155 633.6359148 1056.72269773 C630.31877027 1056.72412008 627.00164211 1056.72839129 623.68450165 1056.73369217 C612.10573791 1056.75219306 600.52702021 1056.76036281 588.94824219 1056.75878906 C578.16574958 1056.75758806 567.38345727 1056.77868233 556.60101533 1056.81027639 C547.33541241 1056.83645558 538.06987483 1056.84715565 528.80423522 1056.84587824 C523.27404345 1056.84536904 517.74402966 1056.85102912 512.21387482 1056.87223434 C507.00993378 1056.89164397 501.80633999 1056.89172244 496.60238647 1056.87720108 C494.69730877 1056.87511519 492.79220917 1056.87980072 490.88716888 1056.891922 C471.46450701 1057.00745418 462.82077168 1051.8402619 449.10885552 1038.30582071 C445.68274246 1034.90408731 442.27214659 1031.48695555 438.86178589 1028.06944275 C437.30656839 1026.51466183 435.75113094 1024.9601009 434.19549382 1023.40573984 C429.94025123 1019.15272503 425.68811913 1014.8966124 421.43650389 1010.63997185 C416.84404125 1006.04318018 412.24867809 1001.44928972 407.65367126 996.8550415 C399.69906219 988.90112855 391.74643706 980.94523551 383.79500961 972.98814201 C375.45907864 964.64628628 367.12210748 956.30547237 358.78375626 947.96603584 C358.26456361 947.44677446 357.74537096 946.92751307 357.21044521 946.39251649 C354.57353265 943.75526558 351.9366016 941.11803316 349.29966344 938.48080785 C330.64080763 919.81985376 311.98426945 901.15658417 293.32910156 882.49194336 C275.21016146 864.36381326 257.0901671 846.23673801 238.96875 828.11108398 C238.13031644 827.27245314 238.13031644 827.27245314 237.27494483 826.41688025 C231.66148553 820.80210239 226.04800485 815.1873459 220.43450851 809.57260507 C209.00000785 798.13556845 197.56564985 786.69838921 186.13137817 775.26112366 C185.60569273 774.73530092 185.08000728 774.20947818 184.53839197 773.66772143 C149.45679746 738.57693218 114.37853889 703.48280825 79.30078125 668.38818359 C75.56898499 670.458633 72.70548732 672.73511469 69.69422436 675.75143814 C68.34384289 677.09677152 68.34384289 677.09677152 66.96618098 678.46928334 C65.97624111 679.4656197 64.98639335 680.46204758 63.99662781 681.45855713 C62.93836893 682.51665992 61.87966861 683.57432137 60.82056552 684.63157916 C57.91259675 687.53701591 55.01090098 690.44864796 52.11017716 693.36131549 C48.98011082 696.50207199 45.84425473 699.63703818 42.70907593 702.77268982 C37.2766091 708.20751947 31.84776406 713.64594531 26.42130089 719.0867691 C18.56733501 726.96142029 10.70737074 734.83006213 2.84583554 742.6971558 C-9.91955815 755.47180786 -22.68084566 768.25055331 -35.43920898 781.03222656 C-36.20287099 781.79728188 -36.96653299 782.5623372 -37.75333627 783.35057601 C-38.51793628 784.11657156 -39.28253629 784.8825671 -40.070306 785.67177463 C-50.90187738 796.52309889 -61.73440741 807.37346494 -72.56811523 818.22265625 C-73.32993625 818.98556812 -74.09175728 819.74847999 -74.87666378 820.5345104 C-87.58553427 833.26141311 -100.29644214 845.98627973 -113.00839299 858.71010566 C-120.84727738 866.55657512 -128.68407844 874.40511505 -136.51818278 882.2563571 C-141.88867751 887.63843446 -147.2608772 893.01880584 -152.63441006 898.39784989 C-155.73337763 901.50014352 -158.83149445 904.60327492 -161.92738533 907.70863914 C-164.76461119 910.554531 -167.60416572 913.39807808 -170.44553938 916.23982856 C-171.46996567 917.26521616 -172.49354341 918.29145243 -173.51615719 919.31864765 C-178.52776121 924.35183066 -183.57691544 929.25589639 -188.9678964 933.88171911 C-191.40703428 936.00407061 -193.68436441 938.26633291 -195.95980835 940.56216431 C-196.42919661 941.03422597 -196.89858487 941.50628764 -197.38219702 941.9926542 C-198.92570636 943.54607665 -200.46551495 945.10311318 -202.00537109 946.66015625 C-203.1230562 947.78632504 -204.24100913 948.91222807 -205.35920715 950.03788757 C-207.75304254 952.44834647 -210.14547227 954.86018869 -212.53693771 957.27299881 C-216.32473906 961.09361958 -220.11866777 964.90811593 -223.91397095 968.72128296 C-224.55662852 969.36702699 -225.19928609 970.01277103 -225.86141813 970.67808306 C-227.17472624 971.99769804 -228.48804292 973.31730448 -229.801368 974.63690257 C-238.62577939 983.50420544 -247.4455963 992.37600277 -256.25097656 1001.26220703 C-262.20624972 1007.27204755 -268.17044526 1013.27287617 -274.14490664 1019.26364362 C-277.29969413 1022.42777562 -280.44977782 1025.5962877 -283.58890915 1028.77595901 C-286.54127537 1031.76635003 -289.50526983 1034.74471248 -292.47832298 1037.71453285 C-293.56219331 1038.80135692 -294.64182419 1039.89242954 -295.71665764 1040.9881916 C-304.08775831 1049.51488867 -312.01637397 1056.07145404 -324.37876415 1056.52240467 C-325.83583432 1056.53177076 -327.29294555 1056.53571326 -328.75004578 1056.53535461 C-329.55580561 1056.5390313 -330.36156544 1056.54270799 -331.19174224 1056.54649609 C-333.88914651 1056.5575007 -336.58651222 1056.56137128 -339.28393555 1056.56518555 C-341.21916322 1056.57145261 -343.1543897 1056.57809962 -345.08961487 1056.58509827 C-351.44254727 1056.60611129 -357.79547983 1056.61649771 -364.1484375 1056.62646484 C-366.33771083 1056.63051335 -368.52698403 1056.63463031 -370.7162571 1056.63881493 C-381.00200089 1056.65786011 -391.28773753 1056.67209286 -401.57349557 1056.6804269 C-413.43706597 1056.69019876 -425.30044978 1056.71651992 -437.16395444 1056.75692779 C-446.340358 1056.7871082 -455.51670813 1056.80189758 -464.69316036 1056.80520791 C-470.17084178 1056.80755606 -475.64832369 1056.81648631 -481.12595177 1056.84166908 C-486.28143926 1056.86498858 -491.43659642 1056.86916736 -496.59212303 1056.8589077 C-498.47946778 1056.85841318 -500.366829 1056.86470863 -502.25412369 1056.87846375 C-519.94465363 1057.00013621 -529.7322022 1053.23413528 -542.62896919 1040.71570206 C-544.44885485 1038.90929831 -546.26338872 1037.09749233 -548.07351685 1035.28131104 C-549.09058071 1034.267991 -550.10807415 1033.25510197 -551.12595546 1032.24260306 C-553.90137785 1029.47933502 -556.67060479 1026.70993228 -559.43877149 1023.93939829 C-562.43317732 1020.94458237 -565.43330822 1017.9555105 -568.43264771 1014.96563721 C-574.2996376 1009.11521536 -580.16110318 1003.25928933 -586.020373 997.40113667 C-590.78459867 992.63786321 -595.5504044 987.87617642 -600.31731796 983.11559296 C-613.84629492 969.6042149 -627.3710854 956.08866619 -640.89051498 942.56773499 C-641.6183882 941.83978186 -642.34626142 941.11182872 -643.09619141 940.36181641 C-644.18933973 939.26854544 -644.18933973 939.26854544 -645.30457185 938.1531882 C-657.11840066 926.33854628 -668.9421779 914.53391649 -680.77049913 902.73378542 C-692.92941575 890.60361752 -705.08083776 878.46598606 -717.22452533 866.32057166 C-724.0369726 859.50746132 -730.85244643 852.69744439 -737.67599869 845.89545441 C-743.48433478 840.10535598 -749.28565343 834.3083373 -755.07809652 828.50233772 C-758.0309072 825.54301129 -760.98679203 822.58694531 -763.95155334 819.6395874 C-766.67052971 816.93640751 -769.37994318 814.22399774 -772.08233319 811.50423929 C-773.5145753 810.06750508 -774.95658226 808.64052512 -776.39902222 807.21402955 C-785.049062 798.47204558 -792.47739121 789.42957672 -792.7578125 776.73583984 C-791.98147733 758.88013084 -776.88122381 747.41987849 -765.09410191 735.65163898 C-763.8278223 734.3837067 -762.56176031 733.11555706 -761.29589459 731.84721157 C-757.82472666 728.37050651 -754.35047764 724.89689493 -750.87570176 721.42379633 C-747.09288958 717.6417178 -743.31296165 713.85675844 -739.53265566 710.0721752 C-732.03830531 702.57025869 -724.54127674 695.07102394 -717.04342081 687.5726113 C-708.06144765 678.58972317 -699.08235431 669.60395851 -690.10330464 660.61814831 C-668.92190918 639.42108758 -647.73572173 618.22881945 -626.54882299 597.03725963 C-615.76918046 586.25523226 -604.99019753 575.47254561 -594.21133697 564.68973651 C-559.62925115 530.09498978 -525.04622763 495.50118077 -490.45950781 460.9110669 C-488.80741682 459.25881367 -487.1553275 457.60655878 -485.50323868 455.95430339 C-482.19002268 452.64075358 -478.87680501 449.32720544 -475.56358725 446.01365739 C-471.68472382 442.13440707 -467.80586175 438.25515539 -463.92700216 434.37590124 C-462.81684737 433.26563403 -461.70669209 432.15536733 -460.5965363 431.04510112 C-424.92648649 395.37150033 -389.26220967 359.69213661 -353.60203622 324.0086633 C-327.96938607 298.35927192 -302.33610374 272.71051461 -276.69734097 247.06723309 C-276.17012136 246.53991999 -275.64290175 246.01260689 -275.09970578 245.46931461 C-263.52626992 233.89385976 -251.95240262 222.31883636 -240.37813396 210.74421421 C-236.23679417 206.60273824 -232.09549079 202.46122587 -227.95420696 198.31969395 C-226.92397419 197.28939962 -225.89373981 196.25910692 -224.8635038 195.22881584 C-208.44865968 178.81305198 -192.03834446 162.39276975 -175.63032757 145.97018213 C-158.64767782 128.97251165 -141.65961891 111.98026738 -124.66530783 94.99425534 C-114.86673503 85.20014577 -105.07236308 75.40187844 -95.28392789 65.59763689 C-88.74831402 59.05229484 -82.20728333 52.5123999 -75.66179118 45.97693642 C-71.93059145 42.25114413 -68.2018144 38.52301207 -64.47960234 34.78823886 C-61.0922625 31.38956326 -57.698071 27.99788975 -54.29832346 24.61162705 C-53.07841228 23.39414796 -51.86099902 22.17415937 -50.64643688 20.95134399 C-34.48762006 4.68998086 -22.6027908 -0.08271844 0 0 Z " fill="#001252" transform="translate(792.69921875,-0.38818359375)"/>
<path d="M0 0 C3.7411172 1.56132339 6.11554836 3.86612824 8.96597838 6.71758139 C9.69967067 7.44743942 9.69967067 7.44743942 10.44818502 8.19204205 C12.09607442 9.83377618 13.73670511 11.48257917 15.37749863 13.13140297 C16.57041807 14.32284378 17.76377624 15.51384546 18.95753449 16.70444584 C22.25677117 19.99752164 25.54970078 23.2968432 28.84169215 26.59715976 C32.41656143 30.17887761 35.99721076 33.75480897 39.57714772 37.33146036 C45.85722025 43.60737789 52.1335519 49.88701739 58.40748405 56.1690731 C67.73667923 65.51031433 77.07157754 74.84584043 86.40767624 84.18018131 C102.11059998 99.88047413 117.80886286 115.58542026 133.50447845 131.29301834 C149.05080593 146.851186 164.59919725 162.40728636 180.15036774 177.96061325 C180.63311649 178.44343083 181.11586525 178.92624841 181.61324275 179.42369682 C186.02233396 183.83341442 190.43145067 188.24310651 194.84059799 192.65276801 C205.80182023 203.61526913 216.76272252 214.57809012 227.72340775 225.54112816 C228.47214143 226.2900218 228.47214143 226.2900218 229.23600105 227.0540446 C253.52398707 251.34727514 277.80828634 275.64419014 302.09228516 299.94140625 C310.52061688 308.37432125 318.9489649 316.80721997 327.37738037 325.24005127 C327.90010315 325.76304795 328.42282593 326.28604462 328.96138879 326.82488969 C353.2561474 351.13233371 377.55352239 375.43716174 401.85157375 399.74131423 C403.42879404 401.31893066 405.00601321 402.89654821 406.58323215 404.47416599 C417.03544326 414.92901664 427.4876995 425.38382218 437.93998595 435.83859751 C458.73789092 456.64145564 479.53553075 477.44457884 500.33298846 498.24788412 C501.32344388 499.23861802 502.31389949 500.22935174 503.30435529 501.22008528 C564.39496412 562.32782895 625.47978812 623.44135489 701 699 C699.52524927 702.08092048 698.03957312 704.20954217 695.61481285 706.63128281 C694.91066824 707.33940951 694.20652364 708.04753622 693.48104131 708.77712131 C692.70478639 709.54755055 691.92853146 710.31797979 691.12875366 711.11175537 C690.30625079 711.93596709 689.48374791 712.76017882 688.63632071 713.60936666 C686.35272453 715.89568923 684.06469315 718.17746338 681.77472782 720.45740342 C679.30622912 722.91727064 676.8435073 725.38290939 674.38008118 727.84785461 C670.11137134 732.11761349 665.83901295 736.38369326 661.56415939 740.64730072 C655.38343474 746.81177596 649.20823568 752.981762 643.03437419 759.15310994 C633.01770924 769.16539691 622.99658547 779.17320879 612.97265625 789.17822266 C603.23496297 798.8975598 593.49937107 808.61899389 583.76660156 818.34326172 C583.1667409 818.94259694 582.56688023 819.54193215 581.94884197 820.15942904 C578.93955054 823.16611042 575.93030041 826.17283313 572.92107081 829.1795764 C547.95378142 854.12613009 522.97925517 879.065428 498 904 C494.94342076 902.63443731 492.84298132 901.09112339 490.48412418 898.72561717 C489.80020338 898.0446536 489.11628257 897.36369003 488.41163689 896.6620912 C487.66671972 895.91020491 486.92180255 895.15831863 486.15431213 894.38364792 C485.35469116 893.58453706 484.55507019 892.78542619 483.73121828 891.96209985 C481.03029906 889.26045429 478.33663877 886.55168298 475.64282227 883.84295654 C473.69789022 881.89347823 471.75143142 879.9455269 469.80503082 877.99751496 C465.56212799 873.74951053 461.32293124 869.49783563 457.08610725 865.24376869 C450.7855573 858.91764994 444.47922944 852.59731516 438.17155426 846.27830176 C428.21094885 836.29959727 418.25380166 826.31745064 408.29902989 816.33292673 C392.49332961 800.48005394 376.67835001 784.6364647 360.86032596 768.79588952 C354.77568744 762.7025112 348.69131566 756.60886652 342.60690308 750.5152626 C341.93087445 749.83821692 341.25484582 749.16117124 340.55833147 748.46360902 C324.46036581 732.3413671 308.36462792 716.21690199 292.27001953 700.09130859 C291.21347962 699.03274319 291.21347962 699.03274319 290.13559547 697.95279263 C273.7059636 681.49158464 257.2784683 665.02824941 240.85565186 648.5602417 C240.14959279 647.85224009 239.44353371 647.14423847 238.71607891 646.41478227 C233.02511444 640.70812483 227.33422571 635.00139186 221.64335655 629.29463938 C198.17830874 605.76421889 174.70319068 582.24388544 151.21643636 558.73513044 C147.89912953 555.41469412 144.58195243 552.09412821 141.26486206 548.77347565 C140.61202696 548.11994301 139.95919186 547.46641037 139.28657388 546.79307371 C128.78080937 536.27543341 118.28595052 525.74697545 107.79531602 515.21424622 C97.24957325 504.62656747 86.69314038 494.04964664 76.12565249 483.48367062 C69.84860024 477.20683233 63.58009583 470.92172976 57.32352922 464.62447038 C53.14090295 460.41629248 48.94741959 456.21914435 44.74503775 452.0306952 C42.35245167 449.64541569 39.96669303 447.25426165 37.59051526 444.85257372 C35.02482875 442.2608292 32.44122125 439.68834057 29.85241699 437.11971664 C28.76313523 436.00593422 28.76313523 436.00593422 27.65184778 434.86965114 C21.47104649 428.80274033 13.52806693 423.18121193 4.6796875 422.23828125 C-18.74823972 422.6952942 -32.56661443 442.42011296 -48.09625244 457.97599792 C-50.02414935 459.904016 -51.95280252 461.83127695 -53.88141894 463.75857526 C-58.05926212 467.93435637 -62.23526468 472.11197094 -66.41003227 476.2908268 C-72.61766302 482.50451954 -78.82818688 488.71531471 -85.03928688 494.92553941 C-95.48980513 505.37474695 -105.9380034 515.82627129 -116.38486481 526.27913475 C-126.72314326 536.62333759 -137.06246172 546.9664991 -147.4031601 557.30828285 C-148.04698647 557.95217797 -148.69081285 558.59607309 -149.35414912 559.25948018 C-152.6240478 562.52971721 -155.89396497 565.79993576 -159.16388926 569.07014719 C-182.30283021 592.21118653 -205.43945365 615.35454165 -228.57470703 638.49926758 C-251.04520978 660.97896005 -273.51676664 683.45759793 -295.98974609 705.93481445 C-296.68290378 706.62810366 -297.37606146 707.32139288 -298.09022393 708.03569085 C-305.05142998 714.99821547 -312.01265742 721.96071871 -318.97390051 728.92320629 C-333.15376507 743.10560682 -347.33348697 757.28814997 -361.51312256 771.47077942 C-362.16502743 772.12282158 -362.8169323 772.77486374 -363.48859186 773.44666475 C-406.99478527 816.96205318 -450.49765345 860.4807659 -494 904 C-497.08092048 902.52524927 -499.20954217 901.03957312 -501.63128281 898.61481285 C-502.33940951 897.91066824 -503.04753622 897.20652364 -503.77712131 896.48104131 C-504.54755055 895.70478639 -505.31797979 894.92853146 -506.11175537 894.12875366 C-506.93596709 893.30625079 -507.76017882 892.48374791 -508.60936666 891.63632071 C-510.89568923 889.35272453 -513.17746338 887.06469315 -515.45740342 884.77472782 C-517.91727064 882.30622912 -520.38290939 879.8435073 -522.84785461 877.38008118 C-527.11761349 873.11137134 -531.38369326 868.83901295 -535.64730072 864.56415939 C-541.81177596 858.38343474 -547.981762 852.20823568 -554.15310994 846.03437419 C-564.16539691 836.01770924 -574.17320879 825.99658547 -584.17822266 815.97265625 C-593.8975598 806.23496297 -603.61899389 796.49937107 -613.34326172 786.76660156 C-613.94259694 786.1667409 -614.54193215 785.56688023 -615.15942904 784.94884197 C-618.16611042 781.93955054 -621.17283313 778.93030041 -624.1795764 775.92107081 C-649.12613009 750.95378142 -674.065428 725.97925517 -699 701 C-697.43867661 697.2588828 -695.13387176 694.88445164 -692.28241861 692.03402162 C-691.55256058 691.30032933 -691.55256058 691.30032933 -690.80795795 690.55181498 C-689.16622382 688.90392558 -687.51742083 687.26329489 -685.86859703 685.62250137 C-684.67715622 684.42958193 -683.48615454 683.23622376 -682.29555416 682.04246551 C-679.00247836 678.74322883 -675.7031568 675.45029922 -672.40284024 672.15830785 C-668.82112239 668.58343857 -665.24519103 665.00278924 -661.66853964 661.42285228 C-655.39262211 655.14277975 -649.11298261 648.8664481 -642.8309269 642.59251595 C-633.48968567 633.26332077 -624.15415957 623.92842246 -614.81981869 614.59232376 C-599.11952587 598.88940002 -583.41457974 583.19113714 -567.70698166 567.49552155 C-552.148814 551.94919407 -536.59271364 536.40080275 -521.03938675 520.84963226 C-520.55656917 520.36688351 -520.07375159 519.88413475 -519.57630318 519.38675725 C-515.16658558 514.97766604 -510.75689349 510.56854933 -506.34723199 506.15940201 C-495.38473087 495.19817977 -484.42190988 484.23727748 -473.45887184 473.27659225 C-472.7099782 472.52785857 -472.7099782 472.52785857 -471.9459554 471.76399895 C-447.65272486 447.47601293 -423.35580986 423.19171366 -399.05859375 398.90771484 C-390.62567875 390.47938312 -382.19278003 382.0510351 -373.75994873 373.62261963 C-373.23695205 373.09989685 -372.71395538 372.57717407 -372.17511031 372.03861121 C-347.86766629 347.7438526 -323.56283826 323.44647761 -299.25868577 299.14842625 C-297.68106934 297.57120596 -296.10345179 295.99398679 -294.52583401 294.41676785 C-284.07098336 283.96455674 -273.61617782 273.5123005 -263.16140249 263.06001405 C-242.35854436 242.26210908 -221.55542116 221.46446925 -200.75211588 200.66701154 C-199.76138198 199.67655612 -198.77064826 198.68610051 -197.77991472 197.69564471 C-136.67217105 136.60503588 -75.55864511 75.52021188 0 0 Z " fill="#8F9BD3" transform="translate(776,76)"/>
</svg>
